<svg width="32" height="32" viewBox="0 0 32 32" fill="none" xmlns="http://www.w3.org/2000/svg">
<path opacity="0.5" d="M29.3334 13.3334H2.66675V25.3334C2.66675 26.3942 3.08818 27.4116 3.83832 28.1618C4.58847 28.9119 5.60588 29.3334 6.66675 29.3334H25.3334C26.3943 29.3334 27.4117 28.9119 28.1618 28.1618C28.912 27.4116 29.3334 26.3942 29.3334 25.3334V13.3334ZM9.33341 10.6667C8.97979 10.6667 8.64065 10.5262 8.39061 10.2762C8.14056 10.0261 8.00008 9.68698 8.00008 9.33335V4.00002C8.00008 3.6464 8.14056 3.30726 8.39061 3.05721C8.64065 2.80716 8.97979 2.66669 9.33341 2.66669C9.68704 2.66669 10.0262 2.80716 10.2762 3.05721C10.5263 3.30726 10.6667 3.6464 10.6667 4.00002V9.33335C10.6667 9.68698 10.5263 10.0261 10.2762 10.2762C10.0262 10.5262 9.68704 10.6667 9.33341 10.6667ZM22.6667 10.6667C22.3131 10.6667 21.974 10.5262 21.7239 10.2762C21.4739 10.0261 21.3334 9.68698 21.3334 9.33335V4.00002C21.3334 3.6464 21.4739 3.30726 21.7239 3.05721C21.974 2.80716 22.3131 2.66669 22.6667 2.66669C23.0204 2.66669 23.3595 2.80716 23.6096 3.05721C23.8596 3.30726 24.0001 3.6464 24.0001 4.00002V9.33335C24.0001 9.68698 23.8596 10.0261 23.6096 10.2762C23.3595 10.5262 23.0204 10.6667 22.6667 10.6667Z" fill="black" fill-opacity="0.8"/>
<path d="M25.3334 5.33331H24.0001V9.33331C24.0001 9.68693 23.8596 10.0261 23.6096 10.2761C23.3595 10.5262 23.0204 10.6666 22.6667 10.6666C22.3131 10.6666 21.974 10.5262 21.7239 10.2761C21.4739 10.0261 21.3334 9.68693 21.3334 9.33331V5.33331H10.6667V9.33331C10.6667 9.68693 10.5263 10.0261 10.2762 10.2761C10.0262 10.5262 9.68704 10.6666 9.33341 10.6666C8.97979 10.6666 8.64065 10.5262 8.39061 10.2761C8.14056 10.0261 8.00008 9.68693 8.00008 9.33331V5.33331H6.66675C5.60588 5.33331 4.58847 5.75474 3.83832 6.50489C3.08818 7.25503 2.66675 8.27245 2.66675 9.33331V13.3333H29.3334V9.33331C29.3334 8.27245 28.912 7.25503 28.1618 6.50489C27.4117 5.75474 26.3943 5.33331 25.3334 5.33331Z" fill="black" fill-opacity="0.8"/>
</svg>
