<svg width="34" height="34" viewBox="0 0 34 34" fill="none" xmlns="http://www.w3.org/2000/svg">
<path fill-rule="evenodd" clip-rule="evenodd" d="M19.125 29.75V24.0833H14.875V29.75H9.9167C9.54097 29.75 9.18064 29.6007 8.91496 29.3351C8.64929 29.0694 8.50003 28.709 8.50003 28.3333V19.8333H4.83653C4.55638 19.8333 4.28255 19.7501 4.04963 19.5945C3.81672 19.4388 3.63519 19.2176 3.52799 18.9587C3.42079 18.6999 3.39273 18.4151 3.44737 18.1404C3.50201 17.8656 3.63688 17.6132 3.83495 17.4151L15.9984 5.25157C16.2641 4.98599 16.6244 4.83679 17 4.83679C17.3757 4.83679 17.7359 4.98599 18.0016 5.25157L30.1651 17.4151C30.3632 17.6132 30.4981 17.8656 30.5527 18.1404C30.6073 18.4151 30.5793 18.6999 30.4721 18.9587C30.3649 19.2176 30.1833 19.4388 29.9504 19.5945C29.7175 19.7501 29.4437 19.8333 29.1635 19.8333H25.5V28.3333C25.5 28.709 25.3508 29.0694 25.0851 29.3351C24.8194 29.6007 24.4591 29.75 24.0834 29.75H19.125Z" fill="black" fill-opacity="0.8"/>
</svg>
