<svg width="34" height="34" viewBox="0 0 34 34" fill="none" xmlns="http://www.w3.org/2000/svg">
<path fill-rule="evenodd" clip-rule="evenodd" d="M20.8986 2.71148C20.1049 3.8039 19.6235 5.0918 19.5062 6.43703C19.3889 7.78226 19.64 9.13405 20.2326 10.3474C20.8252 11.5607 21.737 12.5899 22.8701 13.3243C24.0032 14.0588 25.3149 14.471 26.6645 14.5166V14.5321C26.6857 14.8126 26.707 15.1002 26.7353 15.3779C27.071 18.5611 27.836 20.7471 28.5713 22.1821C29.06 23.1384 29.5403 23.7731 29.8803 24.157C30.0295 24.3263 30.1905 24.4848 30.362 24.6316L30.3761 24.6401C30.5579 24.772 30.6932 24.9581 30.7626 25.1717C30.832 25.3854 30.8319 25.6155 30.7623 25.829C30.6928 26.0426 30.5573 26.2286 30.3754 26.3604C30.1935 26.4922 29.9746 26.5629 29.75 26.5625H4.24997C4.02585 26.5622 3.80756 26.4911 3.62631 26.3593C3.44506 26.2275 3.31013 26.0417 3.24081 25.8286C3.1715 25.6155 3.17135 25.3859 3.2404 25.1727C3.30944 24.9594 3.44413 24.7735 3.62522 24.6415L3.63655 24.6316L3.72722 24.5551C3.81222 24.4786 3.94963 24.3496 4.11963 24.157C4.45963 23.7745 4.93988 23.1398 5.42863 22.1836C6.40613 20.2725 7.43747 17.0425 7.43747 11.9C7.43747 9.23523 8.42913 6.66681 10.2141 4.76281C12.002 2.85598 14.4415 1.77081 17 1.77081C17.5421 1.77081 18.0771 1.81851 18.605 1.9139C18.9422 1.97481 20.0472 2.31906 20.8986 2.71148Z" fill="black" fill-opacity="0.8"/>
<path fill-rule="evenodd" clip-rule="evenodd" d="M21.6041 7.08331C21.6041 5.67435 22.1638 4.3231 23.16 3.32681C24.1563 2.33052 25.5076 1.77081 26.9166 1.77081C28.3255 1.77081 29.6768 2.33052 30.6731 3.32681C31.6693 4.3231 32.2291 5.67435 32.2291 7.08331C32.2291 8.49228 31.6693 9.84353 30.6731 10.8398C29.6768 11.8361 28.3255 12.3958 26.9166 12.3958C25.5076 12.3958 24.1563 11.8361 23.16 10.8398C22.1638 9.84353 21.6041 8.49228 21.6041 7.08331ZM14.0164 28.8306C14.1371 28.7606 14.2705 28.7151 14.4088 28.6967C14.5471 28.6783 14.6877 28.6873 14.8225 28.7232C14.9574 28.7591 15.0838 28.8212 15.1947 28.906C15.3055 28.9908 15.3985 29.0966 15.4685 29.2173C15.6242 29.4855 15.8476 29.7081 16.1163 29.8628C16.3851 30.0175 16.6898 30.099 16.9999 30.099C17.31 30.099 17.6147 30.0175 17.8834 29.8628C18.1522 29.7081 18.3756 29.4855 18.5313 29.2173C18.6013 29.0966 18.6945 28.9908 18.8054 28.9061C18.9163 28.8213 19.0428 28.7593 19.1777 28.7234C19.3127 28.6876 19.4533 28.6786 19.5917 28.6971C19.73 28.7157 19.8634 28.7612 19.9841 28.8313C20.1048 28.9013 20.2106 28.9945 20.2953 29.1054C20.3801 29.2163 20.4422 29.3428 20.478 29.4777C20.5138 29.6126 20.5228 29.7533 20.5043 29.8916C20.4858 30.03 20.4402 30.1633 20.3701 30.2841C20.0277 30.8746 19.5361 31.3648 18.9447 31.7056C18.3532 32.0463 17.6825 32.2257 16.9999 32.2257C16.3173 32.2257 15.6466 32.0463 15.0551 31.7056C14.4636 31.3648 13.9721 30.8746 13.6296 30.2841C13.5595 30.1633 13.5138 30.0298 13.4952 29.8913C13.4767 29.7529 13.4856 29.6121 13.5216 29.4771C13.5575 29.3421 13.6197 29.2155 13.7046 29.1046C13.7895 28.9936 13.8955 28.9005 14.0164 28.8306Z" fill="black" fill-opacity="0.8"/>
</svg>
