<svg width="33" height="33" viewBox="0 0 33 33" fill="none" xmlns="http://www.w3.org/2000/svg">
<path d="M26.8124 16.5C26.8124 16.1838 26.7987 15.8812 26.7712 15.565L29.3287 13.6262C29.8787 13.2137 30.0299 12.4437 29.6862 11.8387L27.1149 7.3975C26.95 7.10625 26.6834 6.8862 26.3661 6.7796C26.0489 6.67301 25.7034 6.6874 25.3962 6.82L22.4399 8.07125C21.9312 7.71375 21.3949 7.3975 20.8312 7.13625L20.4324 3.96C20.3499 3.2725 19.7587 2.75 19.0712 2.75H13.9424C13.2412 2.75 12.6499 3.2725 12.5674 3.96L12.1687 7.13625C11.6049 7.3975 11.0687 7.71375 10.5599 8.07125L7.60366 6.82C6.97116 6.545 6.22866 6.7925 5.88491 7.3975L3.31366 11.8525C2.96991 12.4575 3.12116 13.2137 3.67116 13.64L6.22866 15.5787C6.17132 16.1962 6.17132 16.8176 6.22866 17.435L3.67116 19.3738C3.12116 19.7863 2.96991 20.5562 3.31366 21.1613L5.88491 25.6025C6.22866 26.2075 6.97116 26.455 7.60366 26.18L10.5599 24.9287C11.0687 25.2862 11.6049 25.6025 12.1687 25.8637L12.5674 29.04C12.6499 29.7275 13.2412 30.25 13.9287 30.25H19.0574C19.7449 30.25 20.3362 29.7275 20.4187 29.04L20.8174 25.8637C21.3812 25.6025 21.9174 25.2862 22.4262 24.9287L25.3824 26.18C26.0149 26.455 26.7574 26.2075 27.1012 25.6025L29.6724 21.1613C30.0162 20.5562 29.8649 19.8 29.3149 19.3738L26.7574 17.435C26.7987 17.1188 26.8124 16.8162 26.8124 16.5ZM16.5549 21.3125C13.9012 21.3125 11.7424 19.1537 11.7424 16.5C11.7424 13.8463 13.9012 11.6875 16.5549 11.6875C19.2087 11.6875 21.3674 13.8463 21.3674 16.5C21.3674 19.1537 19.2087 21.3125 16.5549 21.3125Z" fill="black" fill-opacity="0.8"/>
</svg>
