<svg width="35" height="35" viewBox="0 0 35 35" fill="none" xmlns="http://www.w3.org/2000/svg">
<path d="M17.4272 26.25C17.9376 26.25 18.3693 26.0735 18.7222 25.7206C19.0751 25.3677 19.2511 24.9365 19.2501 24.4271C19.2491 23.9176 19.0731 23.486 18.7222 23.1321C18.3712 22.7782 17.9395 22.6022 17.4272 22.6042C16.9148 22.6061 16.4836 22.7826 16.1336 23.1335C15.7836 23.4845 15.6072 23.9157 15.6042 24.4271C15.6013 24.9385 15.7778 25.3701 16.1336 25.7221C16.4895 26.074 16.9206 26.25 17.4272 26.25ZM16.1147 20.6354H18.8126C18.8126 19.8333 18.904 19.2014 19.0868 18.7396C19.2695 18.2778 19.7858 17.6458 20.6355 16.8438C21.2674 16.2118 21.7657 15.61 22.1303 15.0383C22.4949 14.4667 22.6772 13.7803 22.6772 12.9792C22.6772 11.6181 22.1789 10.5729 21.1824 9.84375C20.1858 9.11458 19.007 8.75 17.6459 8.75C16.2605 8.75 15.1366 9.11458 14.2743 9.84375C13.4119 10.5729 12.8101 11.4479 12.4688 12.4688L14.8751 13.4167C14.9966 12.9792 15.2703 12.5052 15.6961 11.9948C16.122 11.4844 16.7719 11.2292 17.6459 11.2292C18.4237 11.2292 19.007 11.4421 19.3959 11.8679C19.7848 12.2937 19.9792 12.7614 19.9792 13.2708C19.9792 13.7569 19.8334 14.2129 19.5417 14.6388C19.2501 15.0646 18.8855 15.4593 18.448 15.8229C17.3786 16.7708 16.7223 17.4878 16.4792 17.974C16.2362 18.4601 16.1147 19.3472 16.1147 20.6354ZM17.5001 32.0833C15.4827 32.0833 13.5869 31.7008 11.8126 30.9356C10.0383 30.1705 8.49487 29.1312 7.18237 27.8177C5.86988 26.5042 4.83106 24.9608 4.06592 23.1875C3.30078 21.4142 2.91772 19.5183 2.91675 17.5C2.91578 15.4817 3.29883 13.5858 4.06592 11.8125C4.833 10.0392 5.87182 8.49576 7.18237 7.18229C8.49293 5.86882 10.0363 4.83 11.8126 4.06583C13.5888 3.30167 15.4847 2.91861 17.5001 2.91667C19.5155 2.91472 21.4113 3.29778 23.1876 4.06583C24.9638 4.83389 26.5072 5.87271 27.8178 7.18229C29.1283 8.49188 30.1677 10.0353 30.9357 11.8125C31.7038 13.5897 32.0863 15.4856 32.0834 17.5C32.0805 19.5144 31.6974 21.4103 30.9343 23.1875C30.1711 24.9647 29.1322 26.5081 27.8178 27.8177C26.5033 29.1273 24.9599 30.1666 23.1876 30.9356C21.4152 31.7047 19.5194 32.0872 17.5001 32.0833Z" fill="black" fill-opacity="0.8"/>
</svg>
