<svg width="36" height="36" viewBox="0 0 36 36" fill="none" xmlns="http://www.w3.org/2000/svg">
<g clip-path="url(#clip0_15_148)">
<path d="M12 16.14H11.13C9.94272 16.0971 8.75932 16.2986 7.65322 16.7321C6.54711 17.1656 5.5419 17.8218 4.69996 18.66L4.45996 18.94V27.22H8.53996V22.52L9.08996 21.9L9.33996 21.61C10.6419 20.2725 12.2627 19.2883 14.05 18.75C13.1555 18.0688 12.4498 17.1704 12 16.14Z" fill="black" fill-opacity="0.8"/>
<path d="M31.3401 18.63C30.4981 17.7919 29.4929 17.1357 28.3868 16.7022C27.2807 16.2687 26.0973 16.0671 24.9101 16.11C24.546 16.112 24.1822 16.132 23.8201 16.17C23.3618 17.1367 22.6754 17.9775 21.8201 18.62C23.7282 19.1474 25.4568 20.1845 26.8201 21.62L27.0701 21.9L27.6101 22.52V27.23H31.5501V18.91L31.3401 18.63Z" fill="black" fill-opacity="0.8"/>
<path d="M11.1001 14.19H11.4101C11.2661 12.9532 11.4831 11.7012 12.0349 10.5851C12.5868 9.46894 13.4499 8.53639 14.5201 7.89999C14.1322 7.30734 13.597 6.82559 12.9669 6.50193C12.3369 6.17827 11.6336 6.02379 10.9259 6.05362C10.2182 6.08344 9.53033 6.29654 8.92974 6.67207C8.32914 7.04759 7.83637 7.57265 7.49967 8.19584C7.16297 8.81902 6.99389 9.51897 7.00899 10.2271C7.02408 10.9353 7.22283 11.6274 7.58577 12.2357C7.94872 12.844 8.46342 13.3476 9.07946 13.6971C9.69551 14.0467 10.3918 14.2303 11.1001 14.23V14.19Z" fill="black" fill-opacity="0.8"/>
<path d="M24.43 13.44C24.4413 13.6699 24.4413 13.9001 24.43 14.13C24.6218 14.1607 24.8157 14.1774 25.01 14.18H25.2C25.9052 14.1424 26.5886 13.9228 27.1838 13.5427C27.779 13.1625 28.2656 12.6347 28.5962 12.0107C28.9269 11.3867 29.0903 10.6877 29.0706 9.98173C29.0509 9.27579 28.8488 8.58698 28.4838 7.98235C28.1189 7.37773 27.6036 6.8779 26.9882 6.53152C26.3728 6.18515 25.6781 6.00403 24.9719 6.00581C24.2657 6.00759 23.572 6.1922 22.9583 6.54166C22.3446 6.89113 21.8319 7.39354 21.47 8C22.3751 8.59093 23.1193 9.3973 23.6359 10.3468C24.1525 11.2962 24.4254 12.3591 24.43 13.44Z" fill="black" fill-opacity="0.8"/>
<path d="M17.8699 17.92C20.3386 17.92 22.3399 15.9187 22.3399 13.45C22.3399 10.9813 20.3386 8.97998 17.8699 8.97998C15.4012 8.97998 13.3999 10.9813 13.3999 13.45C13.3999 15.9187 15.4012 17.92 17.8699 17.92Z" fill="black" fill-opacity="0.8"/>
<path d="M18.11 20.3C16.8041 20.2478 15.5011 20.4601 14.2793 20.9241C13.0575 21.3881 11.9421 22.0942 11 23L10.75 23.28V29.61C10.7539 29.8162 10.7984 30.0196 10.8809 30.2086C10.9634 30.3975 11.0824 30.5684 11.231 30.7114C11.3796 30.8544 11.5549 30.9668 11.7469 31.042C11.9389 31.1173 12.1438 31.154 12.35 31.15H23.84C24.0462 31.154 24.2511 31.1173 24.4431 31.042C24.6351 30.9668 24.8104 30.8544 24.959 30.7114C25.1076 30.5684 25.2266 30.3975 25.3091 30.2086C25.3916 30.0196 25.4361 29.8162 25.44 29.61V23.3L25.2 23C24.2643 22.0909 23.1528 21.3825 21.9337 20.9182C20.7145 20.4539 19.4134 20.2436 18.11 20.3Z" fill="black" fill-opacity="0.8"/>
</g>
<defs>
<clipPath id="clip0_15_148">
<rect width="36" height="36" fill="white"/>
</clipPath>
</defs>
</svg>
